solid ushape
  facet normal -1.000000 0.000000 0.000000
    outer loop
      vertex -0.150000 -0.050000 0.000000
      vertex -0.150000 -0.050000 0.300000
      vertex -0.150000 0.050000 0.300000
    endloop
  endfacet
  facet normal -1.000000 0.000000 0.000000
    outer loop
      vertex -0.150000 -0.050000 0.000000
      vertex -0.150000 0.050000 0.300000
      vertex -0.150000 0.050000 0.000000
    endloop
  endfacet
  facet normal 1.000000 0.000000 0.000000
    outer loop
      vertex -0.100000 -0.050000 0.000000
      vertex -0.100000 0.050000 0.000000
      vertex -0.100000 0.050000 0.300000
    endloop
  endfacet
  facet normal 1.000000 0.000000 0.000000
    outer loop
      vertex -0.100000 -0.050000 0.000000
      vertex -0.100000 0.050000 0.300000
      vertex -0.100000 -0.050000 0.300000
    endloop
  endfacet
  facet normal 0.000000 -1.000000 0.000000
    outer loop
      vertex -0.150000 -0.050000 0.000000
      vertex -0.100000 -0.050000 0.000000
      vertex -0.100000 -0.050000 0.300000
    endloop
  endfacet
  facet normal 0.000000 -1.000000 0.000000
    outer loop
      vertex -0.150000 -0.050000 0.000000
      vertex -0.100000 -0.050000 0.300000
      vertex -0.150000 -0.050000 0.300000
    endloop
  endfacet
  facet normal 0.000000 1.000000 0.000000
    outer loop
      vertex -0.150000 0.050000 0.000000
      vertex -0.150000 0.050000 0.300000
      vertex -0.100000 0.050000 0.300000
    endloop
  endfacet
  facet normal 0.000000 1.000000 0.000000
    outer loop
      vertex -0.150000 0.050000 0.000000
      vertex -0.100000 0.050000 0.300000
      vertex -0.100000 0.050000 0.000000
    endloop
  endfacet
  facet normal 0.000000 0.000000 -1.000000
    outer loop
      vertex -0.150000 -0.050000 0.000000
      vertex -0.150000 0.050000 0.000000
      vertex -0.100000 0.050000 0.000000
    endloop
  endfacet
  facet normal 0.000000 0.000000 -1.000000
    outer loop
      vertex -0.150000 -0.050000 0.000000
      vertex -0.100000 0.050000 0.000000
      vertex -0.100000 -0.050000 0.000000
    endloop
  endfacet
  facet normal 0.000000 0.000000 1.000000
    outer loop
      vertex -0.150000 -0.050000 0.300000
      vertex -0.100000 -0.050000 0.300000
      vertex -0.100000 0.050000 0.300000
    endloop
  endfacet
  facet normal 0.000000 0.000000 1.000000
    outer loop
      vertex -0.150000 -0.050000 0.300000
      vertex -0.100000 0.050000 0.300000
      vertex -0.150000 0.050000 0.300000
    endloop
  endfacet
  facet normal -1.000000 0.000000 0.000000
    outer loop
      vertex 0.100000 -0.050000 0.000000
      vertex 0.100000 -0.050000 0.300000
      vertex 0.100000 0.050000 0.300000
    endloop
  endfacet
  facet normal -1.000000 0.000000 0.000000
    outer loop
      vertex 0.100000 -0.050000 0.000000
      vertex 0.100000 0.050000 0.300000
      vertex 0.100000 0.050000 0.000000
    endloop
  endfacet
  facet normal 1.000000 0.000000 0.000000
    outer loop
      vertex 0.150000 -0.050000 0.000000
      vertex 0.150000 0.050000 0.000000
      vertex 0.150000 0.050000 0.300000
    endloop
  endfacet
  facet normal 1.000000 0.000000 0.000000
    outer loop
      vertex 0.150000 -0.050000 0.000000
      vertex 0.150000 0.050000 0.300000
      vertex 0.150000 -0.050000 0.300000
    endloop
  endfacet
  facet normal 0.000000 -1.000000 0.000000
    outer loop
      vertex 0.100000 -0.050000 0.000000
      vertex 0.150000 -0.050000 0.000000
      vertex 0.150000 -0.050000 0.300000
    endloop
  endfacet
  facet normal 0.000000 -1.000000 0.000000
    outer loop
      vertex 0.100000 -0.050000 0.000000
      vertex 0.150000 -0.050000 0.300000
      vertex 0.100000 -0.050000 0.300000
    endloop
  endfacet
  facet normal 0.000000 1.000000 0.000000
    outer loop
      vertex 0.100000 0.050000 0.000000
      vertex 0.100000 0.050000 0.300000
      vertex 0.150000 0.050000 0.300000
    endloop
  endfacet
  facet normal 0.000000 1.000000 0.000000
    outer loop
      vertex 0.100000 0.050000 0.000000
      vertex 0.150000 0.050000 0.300000
      vertex 0.150000 0.050000 0.000000
    endloop
  endfacet
  facet normal 0.000000 0.000000 -1.000000
    outer loop
      vertex 0.100000 -0.050000 0.000000
      vertex 0.100000 0.050000 0.000000
      vertex 0.150000 0.050000 0.000000
    endloop
  endfacet
  facet normal 0.000000 0.000000 -1.000000
    outer loop
      vertex 0.100000 -0.050000 0.000000
      vertex 0.150000 0.050000 0.000000
      vertex 0.150000 -0.050000 0.000000
    endloop
  endfacet
  facet normal 0.000000 0.000000 1.000000
    outer loop
      vertex 0.100000 -0.050000 0.300000
      vertex 0.150000 -0.050000 0.300000
      vertex 0.150000 0.050000 0.300000
    endloop
  endfacet
  facet normal 0.000000 0.000000 1.000000
    outer loop
      vertex 0.100000 -0.050000 0.300000
      vertex 0.150000 0.050000 0.300000
      vertex 0.100000 0.050000 0.300000
    endloop
  endfacet
  facet normal -1.000000 0.000000 0.000000
    outer loop
      vertex -0.150000 -0.050000 0.000000
      vertex -0.150000 -0.050000 0.050000
      vertex -0.150000 0.050000 0.050000
    endloop
  endfacet
  facet normal -1.000000 0.000000 0.000000
    outer loop
      vertex -0.150000 -0.050000 0.000000
      vertex -0.150000 0.050000 0.050000
      vertex -0.150000 0.050000 0.000000
    endloop
  endfacet
  facet normal 1.000000 0.000000 0.000000
    outer loop
      vertex 0.150000 -0.050000 0.000000
      vertex 0.150000 0.050000 0.000000
      vertex 0.150000 0.050000 0.050000
    endloop
  endfacet
  facet normal 1.000000 0.000000 0.000000
    outer loop
      vertex 0.150000 -0.050000 0.000000
      vertex 0.150000 0.050000 0.050000
      vertex 0.150000 -0.050000 0.050000
    endloop
  endfacet
  facet normal 0.000000 -1.000000 0.000000
    outer loop
      vertex -0.150000 -0.050000 0.000000
      vertex 0.150000 -0.050000 0.000000
      vertex 0.150000 -0.050000 0.050000
    endloop
  endfacet
  facet normal 0.000000 -1.000000 0.000000
    outer loop
      vertex -0.150000 -0.050000 0.000000
      vertex 0.150000 -0.050000 0.050000
      vertex -0.150000 -0.050000 0.050000
    endloop
  endfacet
  facet normal 0.000000 1.000000 0.000000
    outer loop
      vertex -0.150000 0.050000 0.000000
      vertex -0.150000 0.050000 0.050000
      vertex 0.150000 0.050000 0.050000
    endloop
  endfacet
  facet normal 0.000000 1.000000 0.000000
    outer loop
      vertex -0.150000 0.050000 0.000000
      vertex 0.150000 0.050000 0.050000
      vertex 0.150000 0.050000 0.000000
    endloop
  endfacet
  facet normal 0.000000 0.000000 -1.000000
    outer loop
      vertex -0.150000 -0.050000 0.000000
      vertex -0.150000 0.050000 0.000000
      vertex 0.150000 0.050000 0.000000
    endloop
  endfacet
  facet normal 0.000000 0.000000 -1.000000
    outer loop
      vertex -0.150000 -0.050000 0.000000
      vertex 0.150000 0.050000 0.000000
      vertex 0.150000 -0.050000 0.000000
    endloop
  endfacet
  facet normal 0.000000 0.000000 1.000000
    outer loop
      vertex -0.150000 -0.050000 0.050000
      vertex 0.150000 -0.050000 0.050000
      vertex 0.150000 0.050000 0.050000
    endloop
  endfacet
  facet normal 0.000000 0.000000 1.000000
    outer loop
      vertex -0.150000 -0.050000 0.050000
      vertex 0.150000 0.050000 0.050000
      vertex -0.150000 0.050000 0.050000
    endloop
  endfacet
endsolid ushape
